Coordinates
version=1
nRows=11
nColumns=40
inDegrees=yes

Units are S.I. units (second, meters, Newtons, ...)
Angles are in degrees.

endheader
time	pelvis_tilt	pelvis_list	pelvis_rotation	pelvis_tx	pelvis_ty	pelvis_tz	hip_flexion_r	hip_adduction_r	hip_rotation_r	knee_angle_r	knee_angle_r_beta	ankle_angle_r	subtalar_angle_r	mtp_angle_r	hip_flexion_l	hip_adduction_l	hip_rotation_l	knee_angle_l	knee_angle_l_beta	ankle_angle_l	subtalar_angle_l	mtp_angle_l	lumbar_extension	lumbar_bending	lumbar_rotation	arm_flex_r	arm_add_r	arm_rot_r	elbow_flex_r	pro_sup_r	wrist_flex_r	wrist_dev_r	arm_flex_l	arm_add_l	arm_rot_l	elbow_flex_l	pro_sup_l	wrist_flex_l	wrist_dev_l
      0.00000000	     -2.10839519	     -1.24333934	      1.52099644	     -1.10653712	      0.88814008	     -0.98766090	      8.52612692	      3.36880656	    -14.69970029	    -20.39771346	     -0.35600726	     10.81698816	     -0.70823687	     -0.56533154	     28.51662229	      7.11222658	      8.77132238	    -48.00949859	     -0.83792382	     10.48924976	     18.67823474	     21.01349462	     -4.18155715	      0.71120802	     -0.15961335	      3.62494863	     -9.29385179	    -11.71302870	     34.89217077	     89.95437384	      0.00000000	      0.00000000	     -3.78939676	      9.48543058	     12.80253826	     33.15246188	     89.95437384	      0.00000000	      0.00000000
      0.01000000	     -2.23785878	     -1.31285590	      1.41864020	     -1.10196017	      0.88770957	     -0.98773787	      8.32204644	      3.46051373	    -14.63721327	    -20.35882906	     -0.35532860	     11.06775977	     -0.73711959	     -0.60153971	     29.16460829	      7.03681700	      8.80936619	    -46.71348035	     -0.81530404	     10.39396325	     18.57365859	     20.81421534	     -4.13300387	      0.81824628	     -0.20644339	      3.86901977	     -9.39563922	    -11.55450255	     35.46520148	     89.95437384	      0.00000000	      0.00000000	     -3.96041557	      9.38774992	     12.67067542	     32.76015421	     89.95437384	      0.00000000	      0.00000000
      0.02000000	     -2.23552362	     -1.08734122	      1.29993105	     -1.09739245	      0.88758527	     -0.98792726	      7.99178599	      3.24561470	    -14.28003283	    -20.41168813	     -0.35625116	     11.49648524	     -0.74632830	     -0.63643792	     29.47265339	      6.60526824	      8.84975168	    -45.12651323	     -0.78760624	     10.01410344	     18.39594444	     20.52001524	     -4.24232260	      0.61533835	     -0.07567540	      3.84418835	     -9.54537685	    -11.25609183	     36.42578911	     89.95437384	      0.00000000	      0.00000000	     -3.93624319	      9.25831757	     12.66388371	     32.21297058	     89.95437384	      0.00000000	      0.00000000
      0.03000000	     -2.17979546	     -0.86090758	      1.07749868	     -1.09274666	      0.88754704	     -0.98795550	      7.63009238	      3.00860543	    -14.02741695	    -20.50467875	     -0.35787416	     11.82382758	     -0.68751597	     -0.64489938	     29.63343981	      6.29024043	      9.14009314	    -43.48736543	     -0.75899771	      9.81636893	     18.15679691	     19.96845287	     -4.41817326	      0.37222931	      0.17114372	      3.94572224	     -9.63800713	    -11.13775797	     37.14747413	     89.95437384	      0.00000000	      0.00000000	     -3.94083179	      9.11336843	     12.83589634	     31.79703012	     89.95437384	      0.00000000	      0.00000000
      0.04000000	     -2.34886042	     -0.86820286	      1.02529818	     -1.08800352	      0.88704665	     -0.98801431	      7.43548767	      3.03616855	    -13.96572196	    -20.41061503	     -0.35623243	     11.95009105	     -0.62361347	     -0.67916073	     30.14712362	      6.18857975	      9.23842346	    -41.94874098	     -0.73214365	      9.66873742	     17.83042179	     19.61979867	     -4.28561317	      0.37578318	      0.20634050	      4.00117396	     -9.74015082	    -10.93848562	     37.81097149	     89.95437384	      0.00000000	      0.00000000	     -4.06844223	      9.02625993	     12.92689329	     31.46096564	     89.95437384	      0.00000000	      0.00000000
      0.05000000	     -2.50774942	     -0.95067444	      1.00747372	     -1.08321479	      0.88646724	     -0.98803323	      7.25454715	      3.13856931	    -14.01812065	    -20.39241862	     -0.35591485	     12.12198762	     -0.65696422	     -0.71073517	     30.69300116	      6.23920377	      9.51727929	    -40.55011160	     -0.70773296	      9.57380189	     17.55544332	     19.37512515	     -4.12783567	      0.46087512	      0.26451581	      4.07480343	     -9.80413805	    -10.85399487	     38.33559910	     89.95437384	      0.00000000	      0.00000000	     -4.28001383	      8.87707326	     13.09463543	     31.33981035	     89.95437384	      0.00000000	      0.00000000
      0.06000000	     -2.63352020	     -0.87391114	      0.87980541	     -1.07856677	      0.88604453	     -0.98810409	      7.05821871	      3.07445553	    -13.78277545	    -20.42332655	     -0.35645429	     12.38236643	     -0.64084211	     -0.76467813	     30.98665936	      6.07822407	      9.71781850	    -38.75076267	     -0.67632840	      9.14189516	     17.04796017	     19.03802813	     -4.12184733	      0.35573390	      0.29289534	      4.18207049	     -9.90836084	    -10.45858217	     39.00544167	     89.95437384	      0.00000000	      0.00000000	     -4.24917267	      8.79909595	     13.18468149	     30.81265816	     89.95437384	      0.00000000	      0.00000000
      0.07000000	     -2.67493299	     -0.74567725	      0.80700649	     -1.07363896	      0.88573050	     -0.98834202	      6.71839686	      2.94907815	    -13.59281153	    -20.39880368	     -0.35602629	     12.71956193	     -0.60199520	     -0.84253953	     31.15347690	      5.90199267	     10.09895294	    -37.03364690	     -0.64635907	      8.69927596	     16.63059136	     18.65940731	     -4.10959271	      0.21663332	      0.42624023	      4.16919706	    -10.04845883	    -10.24664254	     39.63271148	     89.95437384	      0.00000000	      0.00000000	     -4.25905544	      8.61277013	     13.67938269	     30.47519196	     89.95437384	      0.00000000	      0.00000000
      0.08000000	     -2.78853391	     -0.78591237	      0.77254443	     -1.06865928	      0.88517568	     -0.98857820	      6.47301003	      2.97708355	    -13.58150742	    -20.41664235	     -0.35633763	     12.91564764	     -0.58897370	     -0.89291983	     31.50895080	      5.93539512	     10.55004039	    -35.55912104	     -0.62062374	      8.66421396	     16.23530270	     18.34212001	     -4.04944495	      0.23382732	      0.26280775	      4.43345153	    -10.07176860	     -9.91021138	     39.94346865	     89.95437384	      0.00000000	      0.00000000	     -4.35085872	      8.60093563	     13.65145579	     30.03446454	     89.95437384	      0.00000000	      0.00000000
      0.09000000	     -2.53303152	     -0.49822509	      0.64127962	     -1.06333283	      0.88526694	     -0.98885934	      5.79513014	      2.51160393	    -13.98411037	    -20.45103865	     -0.35693796	     13.23292854	      0.56159994	     -2.23487971	     31.13226337	      5.72734772	     11.41097353	    -33.60272398	     -0.58647817	      7.50120640	     15.95916258	     10.55950172	     -4.36993181	     -0.10124002	      0.24892450	      4.65327328	    -10.14884487	     -9.48142857	     40.26047748	     89.95437384	      0.00000000	      0.00000000	     -4.37053165	      8.52393580	     13.97440646	     29.64160566	     89.95437384	      0.00000000	      0.00000000
      0.10000000	     -2.75080134	     -0.61731654	      0.62610087	     -1.05845539	      0.88440150	     -0.98915114	      5.67148686	      2.62712002	    -13.98798094	    -20.46818178	     -0.35723716	     13.39247417	      0.51626347	     -2.25470892	     31.59369326	      5.81668105	     11.76012081	    -32.23141847	     -0.56254437	      7.51468886	     15.37008624	     10.39949107	     -4.18512709	      0.01717050	      0.38380451	      4.65022724	    -10.25841366	     -9.42095508	     40.76832143	     89.95437384	      0.00000000	      0.00000000	     -4.44650686	      8.38080537	     14.20463878	     29.55509745	     89.95437384	      0.00000000	      0.00000000
